M48
; DRILL file {KiCad 5.1.10} date Tue Sep  7 22:11:25 2021
; FORMAT={-:-/ absolute / inch / decimal}
; #@! TF.CreationDate,2021-09-07T22:11:25-04:00
; #@! TF.GenerationSoftware,Kicad,Pcbnew,5.1.10
; #@! TF.FileFunction,Plated,1,2,PTH
FMAT,2
INCH
T1C0.0100
T2C0.0200
T3C0.0354
T4C0.0374
T5C0.0394
T6C0.0469
T7C0.0551
%
G90
G05
T1
X4.845Y-4.495
X5.77Y-4.495
X6.03Y-4.655
T2
X3.9852Y-4.9898
X4.6Y-4.525
X4.6Y-4.675
X5.095Y-4.695
X5.1352Y-4.9898
X5.525Y-4.525
X5.525Y-4.675
X6.28Y-4.9898
X7.4352Y-4.9898
X7.84Y-4.75
X8.06Y-4.75
X8.5852Y-4.9898
X9.7302Y-4.9898
T4
X3.45Y-4.175
X3.5484Y-4.175
X3.6469Y-4.175
X3.7453Y-4.175
X3.8437Y-4.175
X3.9421Y-4.175
X4.0406Y-4.175
X4.139Y-4.175
T5
X3.45Y-5.6
X3.45Y-5.6984
X3.45Y-6.0
X3.45Y-6.0984
X4.6Y-5.6
X4.6Y-5.6984
X4.6Y-6.0
X4.6Y-6.0984
X5.75Y-5.6
X5.75Y-5.6984
X5.75Y-6.0
X5.75Y-6.0984
X6.75Y-4.175
X6.8484Y-4.175
X6.9Y-5.6
X6.9Y-5.6984
X6.9Y-6.0
X6.9Y-6.0984
X7.2Y-4.175
X7.2984Y-4.175
X8.05Y-5.6
X8.05Y-5.6984
X8.05Y-6.0
X8.05Y-6.0984
X9.2Y-5.6
X9.2Y-5.6984
X9.2Y-6.0
X9.2Y-6.0984
T6
X4.575Y-4.2
X4.675Y-4.2
X4.775Y-4.2
X5.0Y-4.2
X5.1Y-4.2
X5.2Y-4.2
X5.5Y-4.2
X5.6Y-4.2
X5.7Y-4.2
X5.925Y-4.2
X6.025Y-4.2
X6.125Y-4.2
T7
X7.9311Y-4.2335
X7.9311Y-4.45
X8.0965Y-4.2335
X8.0965Y-4.45
X8.2618Y-4.2335
X8.2618Y-4.45
X8.4272Y-4.2335
X8.4272Y-4.45
X8.5925Y-4.2335
X8.5925Y-4.45
X8.7579Y-4.2335
X8.7579Y-4.45
X8.9232Y-4.2335
X8.9232Y-4.45
X9.0886Y-4.2335
X9.0886Y-4.45
X9.2539Y-4.2335
X9.2539Y-4.45
X9.4193Y-4.2335
X9.4193Y-4.45
X9.5846Y-4.2335
X9.5846Y-4.45
X9.75Y-4.2335
X9.75Y-4.45
T3
G00X3.7756Y-5.4969
M15
G01X3.7756Y-5.5598
M16
G05
G00X4.2244Y-5.4969
M15
G01X4.2244Y-5.5598
M16
G05
G00X4.9256Y-5.4969
M15
G01X4.9256Y-5.5598
M16
G05
G00X5.3744Y-5.4969
M15
G01X5.3744Y-5.5598
M16
G05
G00X6.0756Y-5.4969
M15
G01X6.0756Y-5.5598
M16
G05
G00X6.5244Y-5.4969
M15
G01X6.5244Y-5.5598
M16
G05
G00X7.2256Y-5.4969
M15
G01X7.2256Y-5.5598
M16
G05
G00X7.6744Y-5.4969
M15
G01X7.6744Y-5.5598
M16
G05
G00X8.3756Y-5.4969
M15
G01X8.3756Y-5.5598
M16
G05
G00X8.8244Y-5.4969
M15
G01X8.8244Y-5.5598
M16
G05
G00X9.5256Y-5.4969
M15
G01X9.5256Y-5.5598
M16
G05
G00X9.9744Y-5.4969
M15
G01X9.9744Y-5.5598
M16
G05
T0
M30
